# This file uses centimeters as units for non-parametric coordinates.

mtllib magic cude.mtl
v 0.072864 6.481911 1.052946
v 0.996934 7.018865 0.499529
v -0.567765 7.497265 0.968405
v 0.356305 8.034219 0.414987
v -0.996934 7.137777 -0.096996
v -0.072864 7.674731 -0.650413
v -0.356305 6.122423 -0.012455
v 0.567765 6.659377 -0.565872
vt 0.375000 0.000000
vt 0.625000 0.000000
vt 0.375000 0.250000
vt 0.625000 0.250000
vt 0.375000 0.500000
vt 0.625000 0.500000
vt 0.375000 0.750000
vt 0.625000 0.750000
vt 0.375000 1.000000
vt 0.625000 1.000000
vt 0.875000 0.000000
vt 0.875000 0.250000
vt 0.125000 0.000000
vt 0.125000 0.250000
vn 0.356591 0.298694 0.885226
vn 0.356591 0.298694 0.885226
vn 0.356591 0.298694 0.885226
vn 0.356591 0.298694 0.885226
vn -0.532289 0.843643 -0.070243
vn -0.532289 0.843644 -0.070243
vn -0.532289 0.843643 -0.070243
vn -0.532289 0.843644 -0.070243
vn -0.356591 -0.298694 -0.885226
vn -0.356591 -0.298694 -0.885226
vn -0.356591 -0.298694 -0.885226
vn -0.356591 -0.298694 -0.885226
vn 0.532289 -0.843643 0.070244
vn 0.532289 -0.843644 0.070244
vn 0.532289 -0.843644 0.070244
vn 0.532289 -0.843643 0.070244
vn 0.767796 0.446148 -0.459827
vn 0.767796 0.446148 -0.459827
vn 0.767796 0.446148 -0.459827
vn 0.767796 0.446148 -0.459827
vn -0.767797 -0.446148 0.459827
vn -0.767797 -0.446148 0.459827
vn -0.767797 -0.446148 0.459827
vn -0.767797 -0.446148 0.459827
s off
usemtl initialShadingGroup
f 1/1/1 2/2/2 4/4/3 3/3/4
f 3/3/5 4/4/6 6/6/7 5/5/8
f 5/5/9 6/6/10 8/8/11 7/7/12
f 7/7/13 8/8/14 2/10/15 1/9/16
f 2/2/17 8/11/18 6/12/19 4/4/20
f 7/13/21 1/1/22 3/3/23 5/14/24
