# This file uses centimeters as units for non-parametric coordinates.

mtllib gold ore.mtl
v 0.000000 0.963066 -5.706220
v 1.764861 2.245313 -4.357986
v -0.674117 3.037785 -4.357986
v -2.181488 0.963066 -4.357986
v -0.674117 -1.111652 -4.357986
v 1.764861 -0.319180 -4.357986
v 2.181488 0.963066 -2.176498
v 0.674117 3.037785 -2.176498
v -1.764861 2.245313 -2.176498
v -1.764861 -0.319180 -2.176498
v 0.674117 -1.111652 -2.176498
v 0.000000 0.963066 -0.828265
v 0.000000 0.000000 -5.075175
v 3.104042 2.255218 -2.703898
v -1.185639 3.649020 -2.703899
v -3.836807 -0.000000 -2.703899
v -1.185639 -3.649020 -2.703898
v 3.104042 -2.255218 -2.703898
v 3.836807 0.000000 1.132908
v 1.185638 3.649020 1.132908
v -3.104042 2.255218 1.132908
v -3.104042 -2.255219 1.132908
v 1.185639 -3.649020 1.132908
v 0.000000 0.000000 3.504185
v 0.000000 1.195130 -3.444093
v 2.492169 3.005797 -1.540245
v -0.951924 4.124851 -1.540245
v -3.080491 1.195130 -1.540245
v -0.951924 -1.734590 -1.540245
v 2.492169 -0.615537 -1.540245
v 3.080491 1.195130 1.540245
v 0.951924 4.124851 1.540245
v -2.492169 3.005797 1.540245
v -2.492169 -0.615537 1.540245
v 0.951924 -1.734590 1.540245
v 0.000000 1.195130 3.444093
v -3.485440 -1.852232 -1.762165
v -2.210326 -0.925807 -0.788064
v -3.972491 -0.353245 -0.788064
v -5.061569 -1.852232 -0.788064
v -3.972491 -3.351219 -0.788064
v -2.210326 -2.778657 -0.788064
v -1.909312 -1.852232 0.788064
v -2.998390 -0.353245 0.788064
v -4.760555 -0.925807 0.788064
v -4.760555 -2.778657 0.788064
v -2.998390 -3.351219 0.788064
v -3.485440 -1.852232 1.762165
vt 0.621863 0.587015
vt 0.545731 0.725818
vt 0.545731 0.672800
vt 0.545731 0.587015
vt 0.545731 0.448211
vt 0.545731 0.501229
vt 0.422547 0.725818
vt 0.422547 0.672800
vt 0.422547 0.501229
vt 0.422547 0.448211
vt 0.422547 0.587015
vt 0.346416 0.587015
vt 0.982108 0.289456
vt 0.869189 0.495332
vt 0.869189 0.416694
vt 0.869189 0.289456
vt 0.869189 0.083581
vt 0.869189 0.162218
vt 0.686481 0.495331
vt 0.686481 0.416694
vt 0.686481 0.162218
vt 0.686481 0.083581
vt 0.686481 0.289456
vt 0.573562 0.289456
vt 0.359973 0.816839
vt 0.270886 0.979264
vt 0.270886 0.917223
vt 0.270886 0.816839
vt 0.270886 0.654414
vt 0.270886 0.716455
vt 0.126739 0.979264
vt 0.126739 0.917223
vt 0.126739 0.716455
vt 0.126739 0.654414
vt 0.126739 0.816839
vt 0.037651 0.816839
vt 0.425143 0.272509
vt 0.319382 0.465332
vt 0.319382 0.391680
vt 0.319382 0.272509
vt 0.319382 0.079685
vt 0.319382 0.153337
vt 0.148257 0.465332
vt 0.148257 0.391680
vt 0.148257 0.153337
vt 0.148257 0.079685
vt 0.148257 0.272509
vt 0.042496 0.272509
vn 0.187593 0.577350 -0.794655
vn 0.187593 0.577350 -0.794655
vn 0.187593 0.577350 -0.794655
vn -0.491123 0.356822 -0.794655
vn -0.491123 0.356822 -0.794655
vn -0.491123 0.356822 -0.794655
vn -0.491123 -0.356822 -0.794655
vn -0.491123 -0.356822 -0.794655
vn -0.491123 -0.356822 -0.794655
vn 0.187593 -0.577350 -0.794654
vn 0.187593 -0.577350 -0.794654
vn 0.187593 -0.577350 -0.794654
vn 0.607062 -0.000000 -0.794655
vn 0.607062 -0.000000 -0.794655
vn 0.607062 -0.000000 -0.794655
vn 0.303531 0.934172 -0.187592
vn 0.303531 0.934172 -0.187592
vn 0.303531 0.934172 -0.187592
vn -0.794655 0.577350 -0.187592
vn -0.794655 0.577350 -0.187592
vn -0.794655 0.577350 -0.187592
vn -0.794654 -0.577350 -0.187592
vn -0.794654 -0.577350 -0.187592
vn -0.794654 -0.577350 -0.187592
vn 0.303531 -0.934172 -0.187592
vn 0.303531 -0.934172 -0.187593
vn 0.303531 -0.934172 -0.187593
vn 0.982247 0.000000 -0.187593
vn 0.982247 0.000000 -0.187593
vn 0.982247 0.000000 -0.187593
vn 0.794654 0.577350 0.187593
vn 0.794654 0.577350 0.187593
vn 0.794654 0.577350 0.187593
vn -0.303531 0.934172 0.187592
vn -0.303531 0.934172 0.187592
vn -0.303531 0.934172 0.187592
vn -0.982247 0.000000 0.187593
vn -0.982247 0.000000 0.187593
vn -0.982247 0.000000 0.187593
vn -0.303531 -0.934172 0.187592
vn -0.303531 -0.934172 0.187592
vn -0.303531 -0.934172 0.187592
vn 0.794654 -0.577350 0.187592
vn 0.794654 -0.577350 0.187592
vn 0.794654 -0.577350 0.187592
vn 0.491124 0.356822 0.794654
vn 0.491124 0.356822 0.794654
vn 0.491124 0.356822 0.794654
vn -0.187592 0.577350 0.794655
vn -0.187592 0.577350 0.794655
vn -0.187592 0.577350 0.794655
vn -0.607062 -0.000000 0.794654
vn -0.607062 -0.000000 0.794654
vn -0.607062 -0.000000 0.794654
vn -0.187592 -0.577350 0.794654
vn -0.187592 -0.577350 0.794654
vn -0.187592 -0.577350 0.794654
vn 0.491123 -0.356822 0.794654
vn 0.491123 -0.356822 0.794655
vn 0.491123 -0.356822 0.794655
vn 0.187593 0.577350 -0.794654
vn 0.187593 0.577350 -0.794655
vn 0.187593 0.577350 -0.794654
vn -0.491123 0.356822 -0.794655
vn -0.491123 0.356822 -0.794655
vn -0.491123 0.356822 -0.794655
vn -0.491123 -0.356822 -0.794655
vn -0.491123 -0.356822 -0.794654
vn -0.491123 -0.356822 -0.794654
vn 0.187593 -0.577350 -0.794654
vn 0.187593 -0.577350 -0.794654
vn 0.187593 -0.577350 -0.794654
vn 0.607062 -0.000000 -0.794654
vn 0.607062 -0.000000 -0.794654
vn 0.607062 -0.000000 -0.794654
vn 0.303531 0.934172 -0.187592
vn 0.303531 0.934172 -0.187592
vn 0.303531 0.934172 -0.187592
vn -0.794655 0.577350 -0.187592
vn -0.794654 0.577350 -0.187592
vn -0.794655 0.577350 -0.187592
vn -0.794654 -0.577350 -0.187592
vn -0.794655 -0.577350 -0.187592
vn -0.794654 -0.577350 -0.187592
vn 0.303531 -0.934172 -0.187593
vn 0.303531 -0.934172 -0.187593
vn 0.303531 -0.934172 -0.187593
vn 0.982247 -0.000000 -0.187593
vn 0.982247 -0.000000 -0.187593
vn 0.982247 -0.000000 -0.187593
vn 0.794654 0.577350 0.187592
vn 0.794655 0.577350 0.187592
vn 0.794655 0.577350 0.187592
vn -0.303531 0.934172 0.187593
vn -0.303531 0.934172 0.187593
vn -0.303531 0.934172 0.187593
vn -0.982247 -0.000000 0.187593
vn -0.982247 -0.000000 0.187593
vn -0.982247 -0.000000 0.187593
vn -0.303531 -0.934172 0.187593
vn -0.303531 -0.934173 0.187593
vn -0.303531 -0.934172 0.187593
vn 0.794655 -0.577350 0.187592
vn 0.794655 -0.577350 0.187592
vn 0.794655 -0.577350 0.187592
vn 0.491123 0.356822 0.794655
vn 0.491123 0.356822 0.794655
vn 0.491123 0.356822 0.794655
vn -0.187592 0.577350 0.794655
vn -0.187592 0.577350 0.794655
vn -0.187592 0.577350 0.794655
vn -0.607062 -0.000000 0.794655
vn -0.607062 -0.000000 0.794655
vn -0.607062 -0.000000 0.794655
vn -0.187592 -0.577350 0.794654
vn -0.187592 -0.577350 0.794655
vn -0.187592 -0.577350 0.794654
vn 0.491123 -0.356822 0.794655
vn 0.491123 -0.356822 0.794655
vn 0.491123 -0.356822 0.794655
vn 0.187593 0.577350 -0.794655
vn 0.187593 0.577350 -0.794654
vn 0.187593 0.577350 -0.794655
vn -0.491123 0.356822 -0.794655
vn -0.491123 0.356822 -0.794655
vn -0.491123 0.356822 -0.794655
vn -0.491123 -0.356822 -0.794655
vn -0.491123 -0.356822 -0.794655
vn -0.491123 -0.356822 -0.794654
vn 0.187592 -0.577350 -0.794654
vn 0.187592 -0.577350 -0.794654
vn 0.187592 -0.577350 -0.794654
vn 0.607062 -0.000000 -0.794654
vn 0.607062 -0.000000 -0.794654
vn 0.607062 -0.000000 -0.794654
vn 0.303531 0.934172 -0.187593
vn 0.303531 0.934172 -0.187593
vn 0.303531 0.934172 -0.187593
vn -0.794654 0.577350 -0.187592
vn -0.794654 0.577350 -0.187592
vn -0.794654 0.577350 -0.187592
vn -0.794655 -0.577350 -0.187592
vn -0.794655 -0.577350 -0.187592
vn -0.794655 -0.577350 -0.187592
vn 0.303531 -0.934172 -0.187593
vn 0.303531 -0.934172 -0.187593
vn 0.303531 -0.934172 -0.187593
vn 0.982247 -0.000000 -0.187593
vn 0.982247 -0.000000 -0.187593
vn 0.982247 -0.000000 -0.187593
vn 0.794655 0.577350 0.187592
vn 0.794654 0.577350 0.187592
vn 0.794654 0.577350 0.187592
vn -0.303531 0.934172 0.187592
vn -0.303531 0.934172 0.187593
vn -0.303531 0.934172 0.187592
vn -0.982247 -0.000000 0.187593
vn -0.982247 -0.000000 0.187593
vn -0.982247 -0.000000 0.187593
vn -0.303531 -0.934172 0.187593
vn -0.303531 -0.934172 0.187593
vn -0.303531 -0.934172 0.187593
vn 0.794655 -0.577350 0.187592
vn 0.794655 -0.577350 0.187592
vn 0.794655 -0.577350 0.187592
vn 0.491123 0.356822 0.794655
vn 0.491123 0.356822 0.794655
vn 0.491123 0.356822 0.794654
vn -0.187592 0.577350 0.794655
vn -0.187592 0.577350 0.794655
vn -0.187592 0.577350 0.794655
vn -0.607062 -0.000000 0.794655
vn -0.607062 -0.000000 0.794654
vn -0.607062 -0.000000 0.794654
vn -0.187592 -0.577350 0.794654
vn -0.187592 -0.577350 0.794654
vn -0.187592 -0.577350 0.794654
vn 0.491123 -0.356822 0.794655
vn 0.491123 -0.356822 0.794655
vn 0.491123 -0.356822 0.794654
vn 0.187593 0.577350 -0.794654
vn 0.187593 0.577350 -0.794655
vn 0.187593 0.577350 -0.794655
vn -0.491123 0.356822 -0.794655
vn -0.491123 0.356822 -0.794655
vn -0.491123 0.356822 -0.794655
vn -0.491123 -0.356822 -0.794655
vn -0.491123 -0.356822 -0.794655
vn -0.491123 -0.356822 -0.794655
vn 0.187592 -0.577350 -0.794654
vn 0.187592 -0.577350 -0.794654
vn 0.187592 -0.577350 -0.794654
vn 0.607062 0.000000 -0.794655
vn 0.607062 0.000000 -0.794655
vn 0.607062 0.000000 -0.794655
vn 0.303531 0.934172 -0.187593
vn 0.303531 0.934172 -0.187593
vn 0.303531 0.934172 -0.187593
vn -0.794654 0.577350 -0.187592
vn -0.794654 0.577350 -0.187592
vn -0.794654 0.577350 -0.187592
vn -0.794654 -0.577350 -0.187592
vn -0.794654 -0.577350 -0.187592
vn -0.794654 -0.577350 -0.187592
vn 0.303531 -0.934172 -0.187592
vn 0.303531 -0.934172 -0.187592
vn 0.303531 -0.934172 -0.187592
vn 0.982247 0.000000 -0.187593
vn 0.982247 0.000000 -0.187593
vn 0.982247 0.000000 -0.187593
vn 0.794654 0.577351 0.187592
vn 0.794654 0.577351 0.187592
vn 0.794654 0.577351 0.187592
vn -0.303531 0.934172 0.187593
vn -0.303531 0.934172 0.187593
vn -0.303531 0.934172 0.187593
vn -0.982247 0.000000 0.187593
vn -0.982247 0.000000 0.187593
vn -0.982247 0.000000 0.187593
vn -0.303531 -0.934172 0.187592
vn -0.303531 -0.934172 0.187592
vn -0.303531 -0.934172 0.187592
vn 0.794654 -0.577350 0.187592
vn 0.794654 -0.577350 0.187592
vn 0.794654 -0.577350 0.187592
vn 0.491123 0.356822 0.794654
vn 0.491123 0.356822 0.794654
vn 0.491123 0.356822 0.794654
vn -0.187592 0.577350 0.794655
vn -0.187592 0.577350 0.794655
vn -0.187592 0.577350 0.794655
vn -0.607062 0.000000 0.794655
vn -0.607062 0.000000 0.794655
vn -0.607062 0.000000 0.794655
vn -0.187592 -0.577350 0.794655
vn -0.187592 -0.577350 0.794655
vn -0.187592 -0.577350 0.794655
vn 0.491123 -0.356822 0.794654
vn 0.491123 -0.356822 0.794655
vn 0.491123 -0.356822 0.794655
s off
usemtl initialShadingGroup
f 1/1/1 3/2/2 2/3/3
f 1/1/4 4/4/5 3/2/6
f 1/1/7 5/5/8 4/4/9
f 1/1/10 6/6/11 5/5/12
f 1/1/13 2/3/14 6/6/15
f 2/3/16 3/2/17 8/7/18
f 3/2/19 4/4/20 9/8/21
f 4/4/22 5/5/23 10/9/24
f 5/5/25 6/6/26 11/10/27
f 6/6/28 2/3/29 7/11/30
f 2/3/31 8/7/32 7/11/33
f 3/2/34 9/8/35 8/7/36
f 4/4/37 10/9/38 9/8/39
f 5/5/40 11/10/41 10/9/42
f 6/6/43 7/11/44 11/10/45
f 7/11/46 8/7/47 12/12/48
f 8/7/49 9/8/50 12/12/51
f 9/8/52 10/9/53 12/12/54
f 10/9/55 11/10/56 12/12/57
f 11/10/58 7/11/59 12/12/60
f 13/13/61 15/14/62 14/15/63
f 13/13/64 16/16/65 15/14/66
f 13/13/67 17/17/68 16/16/69
f 13/13/70 18/18/71 17/17/72
f 13/13/73 14/15/74 18/18/75
f 14/15/76 15/14/77 20/19/78
f 15/14/79 16/16/80 21/20/81
f 16/16/82 17/17/83 22/21/84
f 17/17/85 18/18/86 23/22/87
f 18/18/88 14/15/89 19/23/90
f 14/15/91 20/19/92 19/23/93
f 15/14/94 21/20/95 20/19/96
f 16/16/97 22/21/98 21/20/99
f 17/17/100 23/22/101 22/21/102
f 18/18/103 19/23/104 23/22/105
f 19/23/106 20/19/107 24/24/108
f 20/19/109 21/20/110 24/24/111
f 21/20/112 22/21/113 24/24/114
f 22/21/115 23/22/116 24/24/117
f 23/22/118 19/23/119 24/24/120
f 25/25/121 27/26/122 26/27/123
f 25/25/124 28/28/125 27/26/126
f 25/25/127 29/29/128 28/28/129
f 25/25/130 30/30/131 29/29/132
f 25/25/133 26/27/134 30/30/135
f 26/27/136 27/26/137 32/31/138
f 27/26/139 28/28/140 33/32/141
f 28/28/142 29/29/143 34/33/144
f 29/29/145 30/30/146 35/34/147
f 30/30/148 26/27/149 31/35/150
f 26/27/151 32/31/152 31/35/153
f 27/26/154 33/32/155 32/31/156
f 28/28/157 34/33/158 33/32/159
f 29/29/160 35/34/161 34/33/162
f 30/30/163 31/35/164 35/34/165
f 31/35/166 32/31/167 36/36/168
f 32/31/169 33/32/170 36/36/171
f 33/32/172 34/33/173 36/36/174
f 34/33/175 35/34/176 36/36/177
f 35/34/178 31/35/179 36/36/180
f 37/37/181 39/38/182 38/39/183
f 37/37/184 40/40/185 39/38/186
f 37/37/187 41/41/188 40/40/189
f 37/37/190 42/42/191 41/41/192
f 37/37/193 38/39/194 42/42/195
f 38/39/196 39/38/197 44/43/198
f 39/38/199 40/40/200 45/44/201
f 40/40/202 41/41/203 46/45/204
f 41/41/205 42/42/206 47/46/207
f 42/42/208 38/39/209 43/47/210
f 38/39/211 44/43/212 43/47/213
f 39/38/214 45/44/215 44/43/216
f 40/40/217 46/45/218 45/44/219
f 41/41/220 47/46/221 46/45/222
f 42/42/223 43/47/224 47/46/225
f 43/47/226 44/43/227 48/48/228
f 44/43/229 45/44/230 48/48/231
f 45/44/232 46/45/233 48/48/234
f 46/45/235 47/46/236 48/48/237
f 47/46/238 43/47/239 48/48/240
