# This file uses centimeters as units for non-parametric coordinates.

mtllib cannon base.mtl
v -0.243056 1.857662 -0.647020
v -0.246504 1.472014 -0.619603
v -0.248000 1.304634 -0.017507
v -0.246644 1.456310 0.594844
v -0.243206 1.840930 0.647021
v -0.533274 1.862708 -0.836528
v -0.632706 1.364954 -0.801080
v -0.634641 1.148550 -0.022635
v -0.632888 1.344651 0.769070
v -0.533467 1.841074 0.836528
v -0.653442 1.869698 -1.294041
v -0.794652 1.099602 -1.239206
v -0.797645 0.764843 -0.035014
v -0.794933 1.068195 1.189688
v -0.653741 1.836233 1.294041
v -0.533168 1.874539 -1.751553
v -0.637476 0.831396 -1.677331
v -0.641527 0.378283 -0.047394
v -0.637856 0.788886 1.610306
v -0.533573 1.829242 1.751553
v -0.242907 1.874395 -1.941061
v -0.253250 0.717449 -1.858809
v -0.253671 0.670339 1.784532
v -0.243356 1.824197 1.941061
v 0.047311 1.869349 -1.751553
v 0.132952 0.824509 -1.677331
v 0.128901 0.371395 -0.047394
v 0.132572 0.781998 1.610306
v 0.046906 1.824052 1.751553
v 0.167479 1.862359 -1.294041
v 0.294898 1.089861 -1.239206
v 0.291905 0.755102 -0.035014
v 0.294617 1.058454 1.189688
v 0.167180 1.828894 1.294041
v 0.047205 1.857518 -0.836528
v 0.137722 1.358066 -0.801080
v 0.135787 1.141663 -0.022635
v 0.137540 1.337763 0.769070
v 0.047012 1.835884 0.836528
v -0.235105 2.747105 -0.654923
v -0.525322 2.752150 -0.844431
v -0.235254 2.730372 0.639118
v -0.525516 2.730517 0.828626
v -0.645490 2.759141 -1.301943
v -0.645789 2.725676 1.286139
v -0.525216 2.763982 -1.759455
v -0.525621 2.718685 1.743651
v -0.234955 2.763838 -1.948964
v -0.235404 2.713640 1.933159
v 0.055263 2.758793 -1.759455
v 0.054858 2.713496 1.743651
v 0.175431 2.751802 -1.301943
v 0.175132 2.718337 1.286139
v 0.055157 2.746961 -0.844431
v 0.054963 2.725327 0.828626
v -0.247589 1.350610 -0.182893
v 0.136319 1.201105 -0.236461
v 0.292727 0.847055 -0.365785
v 0.130014 0.495857 -0.495110
v -0.256506 0.353240 -0.548678
v -0.640414 0.502745 -0.495110
v -0.796822 0.856795 -0.365785
v -0.634109 1.207993 -0.236461
v -0.247633 1.345676 0.148189
v 0.136262 1.194726 0.191592
v 0.292639 0.837186 0.296378
v 0.129894 0.482500 0.401163
v -0.256638 0.338437 0.444567
v -0.640534 0.489388 0.401163
v -0.796911 0.846927 0.296378
v -0.634166 1.201613 0.191592
v -0.278037 -2.055095 0.444567
v -0.661932 -1.904146 0.401163
v -0.662925 -2.015250 -0.047394
v -0.279138 -2.178223 -0.052522
v 0.108496 -1.911033 0.401163
v 0.107502 -2.022137 -0.047394
v -0.277905 -2.040293 -0.548678
v 0.108615 -1.897674 -0.495110
v -0.661813 -1.890786 -0.495110
v 0.095524 -2.362180 -0.866025
v -0.903739 -2.323809 -0.866026
v -1.403371 -2.304624 -0.000000
v -0.903740 -2.323809 0.866025
v 0.095524 -2.362180 0.866025
v 0.595156 -2.381364 0.000000
v 0.131687 -1.420390 -0.866025
v -0.867576 -1.382020 -0.866026
v -1.367208 -1.362835 -0.000000
v -0.867577 -1.382020 0.866025
v 0.131687 -1.420390 0.866025
v 0.631319 -1.439574 0.000000
v 2.698516 -3.231685 0.000000
v 0.399548 -3.143409 -1.444141
v 0.399548 -3.143409 1.444142
v -1.266776 -3.079425 1.444143
v -3.439335 -2.996002 -0.000000
v -1.266775 -3.079425 -1.444143
vt 0.892599 0.835995
vt 0.901820 0.840402
vt 0.900001 0.849378
vt 0.889104 0.851666
vt 0.875241 0.843811
vt 0.880646 0.830288
vt 0.864077 0.838390
vt 0.871224 0.825788
vt 0.875917 0.828028
vt 0.869279 0.841808
vt 0.850712 0.816030
vt 0.859400 0.820144
vt 0.849322 0.832203
vt 0.844186 0.822552
vt 0.905429 0.861247
vt 0.891702 0.867059
vt 0.871774 0.856670
vt 0.856236 0.848956
vt 0.863202 0.854320
vt 0.835784 0.839188
vt 0.831383 0.824968
vt 0.914873 0.870622
vt 0.896351 0.879661
vt 0.869276 0.869004
vt 0.848068 0.858303
vt 0.857703 0.865501
vt 0.823110 0.842880
vt 0.818486 0.822844
vt 0.922415 0.876456
vt 0.939319 0.807445
vt 0.914276 0.792729
vt 0.903869 0.723994
vt 0.822694 0.911502
vt 0.829539 0.918771
vt 0.825285 0.927029
vt 0.812443 0.846238
vt 0.828372 0.781272
vt 0.933487 0.831473
vt 0.928842 0.811424
vt 0.903547 0.797095
vt 0.907399 0.734167
vt 0.917354 0.734933
vt 0.854120 0.777575
vt 0.835559 0.786585
vt 0.920205 0.830069
vt 0.916128 0.815751
vt 0.895539 0.806790
vt 0.879766 0.799542
vt 0.881891 0.787308
vt 0.893551 0.790289
vt 0.888318 0.801594
vt 0.859258 0.789762
vt 0.845465 0.795347
vt 0.907674 0.833362
vt 0.902560 0.823424
vt 0.887742 0.817576
vt 0.876505 0.812292
vt 0.882435 0.814195
vt 0.862407 0.804700
vt 0.851733 0.806819
vt 0.913075 0.845802
vt 0.914169 0.851044
vt 0.832903 0.811819
vt 0.836547 0.809324
vt 0.920885 0.856879
vt 0.825623 0.811518
vt 0.929509 0.859359
vt 0.818214 0.806901
vt 0.937318 0.857256
vt 0.814342 0.798702
vt 0.934395 0.849854
vt 0.822848 0.796033
vt 0.926160 0.844748
vt 0.831603 0.799559
vt 0.918034 0.843571
vt 0.836875 0.805229
vt 0.842325 0.930602
vt 0.924712 0.741812
vt 0.839513 0.920184
vt 0.837085 0.861900
vt 0.414878 0.832771
vt 0.434493 0.753647
vt 0.442455 0.868888
vt 0.435156 0.861249
vt 0.486602 0.705822
vt 0.415265 0.979104
vt 0.212305 0.932249
vt 0.316739 0.956023
vt 0.264170 0.906519
vt 0.326579 0.922091
vt 0.364448 0.912711
vt 0.397634 0.934355
vt 0.395520 0.776719
vt 0.320427 0.892887
vt 0.213869 0.859390
vt 0.172616 0.829198
vt 0.175123 0.600831
vt 0.375885 0.688780
vt 0.934589 0.737466
vt 0.921116 0.726440
vt 0.872615 0.880098
vt 0.812558 0.915135
vt 0.877803 0.776494
vt 0.850017 0.767171
vt 0.809821 0.820670
vt 0.942799 0.833646
vt 0.899858 0.890303
vt 0.161121 0.934067
vn -0.491176 0.118611 0.862947
vn -0.491176 0.118611 0.862947
vn -0.491176 0.118611 0.862947
vn -0.491176 0.118611 0.862947
vn -0.365433 0.897063 0.248471
vn -0.365433 0.897063 0.248471
vn -0.365433 0.897063 0.248470
vn -0.365433 0.897063 0.248470
vn -0.362337 0.904894 -0.223335
vn -0.362337 0.904894 -0.223335
vn -0.362337 0.904894 -0.223335
vn -0.362337 0.904894 -0.223335
vn -0.488393 0.173154 -0.855272
vn -0.488393 0.173154 -0.855272
vn -0.488393 0.173154 -0.855272
vn -0.488393 0.173154 -0.855272
vn -0.949898 0.197542 0.242221
vn -0.949898 0.197542 0.242221
vn -0.949898 0.197542 0.242221
vn -0.949898 0.197542 0.242221
vn -0.916518 0.385961 0.105017
vn -0.916518 0.385961 0.105017
vn -0.916518 0.385960 0.105017
vn -0.916518 0.385960 0.105017
vn -0.915121 0.391821 -0.095025
vn -0.915121 0.391821 -0.095025
vn -0.915121 0.391821 -0.095025
vn -0.915121 0.391821 -0.095025
vn -0.948044 0.212564 -0.236704
vn -0.948044 0.212564 -0.236704
vn -0.948044 0.212564 -0.236704
vn -0.948044 0.212564 -0.236704
vn -0.940894 0.104468 -0.322188
vn -0.940894 0.104468 -0.322188
vn -0.940894 0.104468 -0.322188
vn -0.940894 0.104468 -0.322188
vn -0.923272 -0.369513 -0.105017
vn -0.923272 -0.369513 -0.105017
vn -0.923272 -0.369512 -0.105017
vn -0.923272 -0.369512 -0.105017
vn -0.921980 -0.375397 0.095026
vn -0.921980 -0.375397 0.095026
vn -0.921980 -0.375398 0.095026
vn -0.921980 -0.375398 0.095026
vn -0.942083 0.083775 0.324749
vn -0.942083 0.083775 0.324749
vn -0.942083 0.083775 0.324749
vn -0.942083 0.083775 0.324749
vn -0.486375 -0.036742 -0.872977
vn -0.486375 -0.036742 -0.872977
vn -0.486375 -0.036742 -0.872977
vn -0.486375 -0.036742 -0.872977
vn -0.381413 -0.890386 -0.248470
vn -0.381413 -0.890386 -0.248470
vn -0.381413 -0.890386 -0.248470
vn -0.381413 -0.890386 -0.248470
vn -0.378458 -0.898271 0.223335
vn -0.378458 -0.898271 0.223335
vn -0.378458 -0.898271 0.223335
vn -0.378458 -0.898271 0.223335
vn -0.485753 -0.092587 0.869179
vn -0.485753 -0.092587 0.869179
vn -0.485753 -0.092587 0.869179
vn -0.485753 -0.092587 0.869179
vn 0.485640 -0.045432 -0.872978
vn 0.485640 -0.045432 -0.872977
vn 0.485640 -0.045432 -0.872978
vn 0.485640 -0.045432 -0.872978
vn 0.365433 -0.897063 -0.248470
vn 0.365433 -0.897063 -0.248470
vn 0.365433 -0.897063 -0.248470
vn 0.365433 -0.897063 -0.248470
vn 0.362337 -0.904894 0.223335
vn 0.362337 -0.904894 0.223335
vn 0.362337 -0.904894 0.223335
vn 0.362337 -0.904894 0.223335
vn 0.484020 -0.101256 0.869179
vn 0.484020 -0.101256 0.869179
vn 0.484020 -0.101256 0.869179
vn 0.484020 -0.101256 0.869179
vn 0.942611 0.087629 -0.322188
vn 0.942611 0.087629 -0.322188
vn 0.942611 0.087629 -0.322188
vn 0.942611 0.087629 -0.322188
vn 0.916518 -0.385961 -0.105017
vn 0.916518 -0.385961 -0.105017
vn 0.916518 -0.385961 -0.105017
vn 0.916518 -0.385961 -0.105017
vn 0.915121 -0.391821 0.095025
vn 0.915121 -0.391821 0.095025
vn 0.915121 -0.391821 0.095025
vn 0.915121 -0.391821 0.095025
vn 0.943430 0.066918 0.324749
vn 0.943430 0.066918 0.324749
vn 0.943430 0.066918 0.324749
vn 0.943430 0.066918 0.324749
vn 0.953278 0.180527 0.242221
vn 0.953278 0.180527 0.242221
vn 0.953278 0.180527 0.242221
vn 0.953278 0.180527 0.242221
vn 0.923272 0.369513 0.105017
vn 0.923272 0.369513 0.105017
vn 0.923272 0.369513 0.105017
vn 0.923272 0.369513 0.105017
vn 0.921980 0.375397 -0.095025
vn 0.921980 0.375397 -0.095025
vn 0.921980 0.375397 -0.095026
vn 0.921980 0.375397 -0.095026
vn 0.951693 0.195580 -0.236705
vn 0.951693 0.195580 -0.236704
vn 0.951693 0.195580 -0.236704
vn 0.951693 0.195580 -0.236705
vn 0.493218 0.109811 0.862947
vn 0.493218 0.109811 0.862947
vn 0.493218 0.109811 0.862947
vn 0.493218 0.109811 0.862947
vn 0.381413 0.890386 0.248470
vn 0.381413 0.890386 0.248470
vn 0.381413 0.890386 0.248470
vn 0.381413 0.890386 0.248470
vn 0.378458 0.898271 -0.223335
vn 0.378458 0.898271 -0.223335
vn 0.378458 0.898271 -0.223334
vn 0.378458 0.898271 -0.223334
vn 0.491411 0.164395 -0.855272
vn 0.491411 0.164395 -0.855272
vn 0.491411 0.164395 -0.855272
vn 0.491411 0.164395 -0.855272
vn -0.546553 0.012326 0.837334
vn -0.546552 0.012326 0.837334
vn -0.546552 0.012326 0.837334
vn -0.546553 0.012326 0.837334
vn -0.546686 -0.002552 -0.837334
vn -0.546686 -0.002552 -0.837334
vn -0.546686 -0.002552 -0.837334
vn -0.546686 -0.002552 -0.837334
vn -0.967096 0.010904 0.254180
vn -0.967096 0.010904 0.254180
vn -0.967096 0.010904 0.254180
vn -0.967096 0.010904 0.254180
vn -0.967136 0.006388 -0.254180
vn -0.967136 0.006388 -0.254180
vn -0.967136 0.006388 -0.254180
vn -0.967136 0.006388 -0.254180
vn -0.967136 0.006388 -0.254180
vn -0.967136 0.006388 -0.254180
vn -0.967136 0.006388 -0.254180
vn -0.967136 0.006388 -0.254180
vn -0.967096 0.010904 0.254180
vn -0.967096 0.010904 0.254180
vn -0.967096 0.010904 0.254180
vn -0.967096 0.010904 0.254180
vn -0.546686 -0.002552 -0.837334
vn -0.546686 -0.002552 -0.837334
vn -0.546686 -0.002552 -0.837334
vn -0.546686 -0.002552 -0.837334
vn -0.546552 0.012326 0.837334
vn -0.546552 0.012326 0.837334
vn -0.546552 0.012326 0.837334
vn -0.546552 0.012326 0.837334
vn 0.546553 -0.012325 -0.837334
vn 0.546553 -0.012325 -0.837334
vn 0.546553 -0.012325 -0.837334
vn 0.546553 -0.012325 -0.837334
vn 0.546686 0.002552 0.837334
vn 0.546686 0.002552 0.837334
vn 0.546686 0.002552 0.837334
vn 0.546686 0.002552 0.837334
vn 0.967096 -0.010904 -0.254180
vn 0.967096 -0.010904 -0.254180
vn 0.967096 -0.010904 -0.254180
vn 0.967096 -0.010904 -0.254180
vn 0.967136 -0.006388 0.254180
vn 0.967136 -0.006388 0.254180
vn 0.967136 -0.006388 0.254180
vn 0.967136 -0.006388 0.254180
vn 0.967136 -0.006388 0.254180
vn 0.967136 -0.006388 0.254180
vn 0.967136 -0.006388 0.254180
vn 0.967136 -0.006388 0.254180
vn 0.967095 -0.010904 -0.254180
vn 0.967095 -0.010904 -0.254180
vn 0.967095 -0.010904 -0.254180
vn 0.967096 -0.010904 -0.254180
vn 0.546686 0.002552 0.837334
vn 0.546686 0.002552 0.837334
vn 0.546686 0.002552 0.837334
vn 0.546686 0.002552 0.837334
vn 0.546553 -0.012326 -0.837334
vn 0.546553 -0.012326 -0.837334
vn 0.546553 -0.012326 -0.837334
vn 0.546553 -0.012326 -0.837334
vn 0.008939 0.999876 0.012930
vn 0.008939 0.999877 0.012930
vn 0.008939 0.999876 0.012930
vn 0.008939 0.999876 0.012930
vn 0.008939 0.999876 0.012930
vn 0.008939 0.999876 0.012930
vn 0.008939 0.999877 0.012930
vn 0.008939 0.999876 0.012930
vn 0.008939 0.999876 0.012930
vn 0.008939 0.999876 0.012930
vn 0.008939 0.999876 0.012930
vn 0.008939 0.999876 0.012930
vn 0.008939 0.999876 0.012930
vn 0.008939 0.999876 0.012930
vn 0.008939 0.999876 0.012930
vn 0.008939 0.999876 0.012930
vn 0.381413 0.890386 0.248470
vn 0.381413 0.890386 0.248470
vn 0.923272 0.369513 0.105017
vn 0.923272 0.369513 0.105017
vn 0.916518 -0.385961 -0.105017
vn 0.916518 -0.385961 -0.105017
vn 0.365435 -0.897061 -0.248472
vn 0.365435 -0.897061 -0.248472
vn 0.365435 -0.897061 -0.248472
vn 0.365435 -0.897061 -0.248472
vn -0.381416 -0.890384 -0.248472
vn -0.381416 -0.890384 -0.248472
vn -0.381416 -0.890384 -0.248472
vn -0.381416 -0.890384 -0.248472
vn -0.923272 -0.369513 -0.105017
vn -0.923272 -0.369513 -0.105017
vn -0.916518 0.385961 0.105017
vn -0.916518 0.385961 0.105017
vn -0.365433 0.897063 0.248471
vn -0.365433 0.897063 0.248471
vn 0.378458 0.898271 -0.223335
vn 0.378458 0.898271 -0.223335
vn 0.921980 0.375397 -0.095025
vn 0.921980 0.375397 -0.095025
vn 0.915121 -0.391821 0.095026
vn 0.915121 -0.391821 0.095026
vn 0.362338 -0.904894 0.223335
vn 0.362338 -0.904894 0.223335
vn 0.362338 -0.904894 0.223335
vn 0.362338 -0.904894 0.223335
vn -0.378458 -0.898271 0.223335
vn -0.378458 -0.898271 0.223335
vn -0.378458 -0.898271 0.223335
vn -0.378458 -0.898271 0.223335
vn -0.921980 -0.375397 0.095026
vn -0.921980 -0.375397 0.095026
vn -0.915121 0.391821 -0.095025
vn -0.915121 0.391821 -0.095025
vn -0.362337 0.904894 -0.223335
vn -0.362337 0.904894 -0.223335
vn -0.111956 0.001001 0.993713
vn -0.111956 0.001001 0.993713
vn -0.111956 0.001001 0.993713
vn -0.111956 0.001001 0.993713
vn -0.999960 0.008940 -0.000000
vn -0.999960 0.008940 -0.000000
vn -0.999960 0.008940 -0.000000
vn -0.999960 0.008940 -0.000000
vn 0.111956 -0.001001 0.993713
vn 0.111956 -0.001001 0.993713
vn 0.111956 -0.001001 0.993713
vn 0.111956 -0.001001 0.993713
vn 0.999960 -0.008940 0.000000
vn 0.999960 -0.008940 0.000000
vn 0.999960 -0.008940 0.000000
vn 0.999960 -0.008940 0.000000
vn 0.137724 -0.001231 -0.990470
vn 0.137724 -0.001231 -0.990470
vn 0.137724 -0.001231 -0.990470
vn 0.137724 -0.001231 -0.990470
vn 0.999960 -0.008940 -0.000000
vn 0.999960 -0.008940 -0.000000
vn 0.999960 -0.008940 -0.000000
vn 0.999960 -0.008940 -0.000000
vn -0.999960 0.008940 0.000000
vn -0.999960 0.008940 0.000000
vn -0.999960 0.008940 0.000000
vn -0.999960 0.008940 0.000000
vn -0.137724 0.001231 -0.990470
vn -0.137724 0.001231 -0.990470
vn -0.137724 0.001231 -0.990470
vn -0.137724 0.001231 -0.990470
vn 0.000000 -0.000000 -1.000000
vn 0.000000 -0.000000 -1.000000
vn 0.000000 -0.000000 -1.000000
vn 0.000000 -0.000000 -1.000000
vn -0.865388 0.033229 -0.500000
vn -0.865388 0.033229 -0.500000
vn -0.865388 0.033229 -0.500000
vn -0.865388 0.033229 -0.500000
vn -0.865388 0.033229 0.500000
vn -0.865388 0.033229 0.500000
vn -0.865388 0.033229 0.500000
vn -0.865388 0.033229 0.500000
vn -0.000000 0.000000 1.000000
vn -0.000000 0.000000 1.000000
vn -0.000000 0.000000 1.000000
vn -0.000000 0.000000 1.000000
vn 0.865388 -0.033229 0.500000
vn 0.865388 -0.033229 0.500000
vn 0.865388 -0.033229 0.500000
vn 0.865388 -0.033229 0.500000
vn 0.865388 -0.033229 -0.500000
vn 0.865388 -0.033229 -0.500000
vn 0.865388 -0.033229 -0.500000
vn 0.865388 -0.033229 -0.500000
vn -0.038370 -0.999264 -0.000000
vn -0.038370 -0.999264 -0.000000
vn -0.038370 -0.999264 -0.000000
vn -0.038370 -0.999264 -0.000000
vn -0.038370 -0.999264 -0.000000
vn -0.038370 -0.999264 -0.000000
vn 0.038370 0.999264 -0.000000
vn 0.038370 0.999264 -0.000000
vn 0.038370 0.999264 -0.000000
vn 0.038370 0.999264 -0.000000
vn 0.038370 0.999264 -0.000000
vn 0.038370 0.999264 -0.000000
vn 0.416111 0.779743 -0.467817
vn 0.416111 0.779743 -0.467817
vn 0.416111 0.779743 -0.467817
vn 0.416111 0.779743 -0.467817
vn 0.416111 0.779743 0.467817
vn 0.416111 0.779743 0.467817
vn 0.416111 0.779743 0.467817
vn 0.416111 0.779743 0.467817
vn 0.023057 0.600472 0.799313
vn 0.023057 0.600472 0.799313
vn 0.023057 0.600472 0.799313
vn 0.023057 0.600472 0.799313
vn -0.371969 0.802844 0.465919
vn -0.371969 0.802844 0.465919
vn -0.371969 0.802844 0.465919
vn -0.371969 0.802844 0.465919
vn -0.371969 0.802844 -0.465919
vn -0.371969 0.802844 -0.465919
vn -0.371969 0.802844 -0.465919
vn -0.371969 0.802844 -0.465919
vn 0.023057 0.600472 -0.799314
vn 0.023057 0.600472 -0.799314
vn 0.023057 0.600472 -0.799314
vn 0.023057 0.600472 -0.799314
s off
usemtl initialShadingGroup
f 2/1/1 1/2/2 6/3/3 7/4/4
s 1
f 63/5/5 56/6/6 2/1/7 7/4/8
s 2
f 71/7/9 64/8/10 3/9/11 8/10/12
s off
f 5/11/13 4/12/14 9/13/15 10/14/16
f 7/4/17 6/3/18 11/15/19 12/16/20
s 3
f 62/17/21 63/5/22 7/4/23 12/16/24
s 4
f 70/18/25 71/7/26 8/10/27 13/19/28
s off
f 10/14/29 9/13/30 14/20/31 15/21/32
f 12/16/33 11/15/34 16/22/35 17/23/36
s 5
f 61/24/37 62/17/38 12/16/39 17/23/40
s 6
f 69/25/41 70/18/42 13/19/43 18/26/44
s off
f 15/21/45 14/20/46 19/27/47 20/28/48
f 17/23/49 16/22/50 21/29/51 22/107/52
f 60/101/53 61/24/54 17/23/55 22/107/56
f 72/102/57 73/33/58 74/34/59 75/35/60
f 20/28/61 19/27/62 23/36/63 24/105/64
f 22/30/65 21/106/66 25/38/67 26/39/68
f 59/40/69 60/31/70 22/30/71 26/39/72
f 76/41/73 72/32/74 75/100/75 77/42/76
f 24/37/77 23/104/78 28/43/79 29/44/80
f 26/39/81 25/38/82 30/45/83 31/46/84
s 7
f 58/47/85 59/40/86 26/39/87 31/46/88
s 8
f 66/48/89 67/49/90 27/50/91 32/51/92
s off
f 29/44/93 28/43/94 33/52/95 34/53/96
f 31/46/97 30/45/98 35/54/99 36/55/100
s 9
f 57/56/101 58/47/102 31/46/103 36/55/104
s 10
f 65/57/105 66/48/106 32/51/107 37/58/108
s off
f 34/53/109 33/52/110 38/59/111 39/60/112
f 36/55/113 35/54/114 1/2/115 2/1/116
s 11
f 56/6/117 57/56/118 36/55/119 2/1/120
s 12
f 64/8/121 65/57/122 37/58/123 3/9/124
s off
f 39/60/125 38/59/126 4/12/127 5/11/128
f 6/3/129 1/2/130 40/61/131 41/62/132
f 5/11/133 10/14/134 43/63/135 42/64/136
f 11/15/137 6/3/138 41/62/139 44/65/140
f 10/14/141 15/21/142 45/66/143 43/63/144
f 16/22/145 11/15/146 44/65/147 46/67/148
f 15/21/149 20/28/150 47/68/151 45/66/152
f 21/29/153 16/22/154 46/67/155 48/69/156
f 20/28/157 24/105/158 49/70/159 47/68/160
f 25/38/161 21/106/162 48/69/163 50/71/164
f 24/37/165 29/44/166 51/72/167 49/70/168
f 30/45/169 25/38/170 50/71/171 52/73/172
f 29/44/173 34/53/174 53/74/175 51/72/176
f 35/54/177 30/45/178 52/73/179 54/75/180
f 34/53/181 39/60/182 55/76/183 53/74/184
f 1/2/185 35/54/186 54/75/187 40/61/188
f 39/60/189 5/11/190 42/64/191 55/76/192
f 41/62/193 40/61/194 54/75/195 52/73/196 50/71/197 48/69/198 46/67/199 44/65/200
f 43/63/201 45/66/202 47/68/203 49/70/204 51/72/205 53/74/206 55/76/207 42/64/208
s 11
f 37/58/209 57/56/118 56/6/117 3/9/210
s 9
f 32/51/211 58/47/102 57/56/101 37/58/212
s 7
f 27/50/213 59/40/86 58/47/85 32/51/214
s off
f 75/100/215 78/99/216 79/78/217 77/42/218
f 74/34/219 80/79/220 78/77/221 75/35/222
s 5
f 13/19/223 62/17/38 61/24/37 18/26/224
s 3
f 8/10/225 63/5/22 62/17/21 13/19/226
s 1
f 3/9/227 56/6/6 63/5/5 8/10/228
s 12
f 38/59/229 65/57/122 64/8/121 4/12/230
s 10
f 33/52/231 66/48/106 65/57/105 38/59/232
s 8
f 28/43/233 67/49/90 66/48/89 33/52/234
s off
f 23/104/235 68/103/236 67/49/237 28/43/238
f 19/27/239 69/25/240 68/80/241 23/36/242
s 6
f 14/20/243 70/18/42 69/25/41 19/27/244
s 4
f 9/13/245 71/7/26 70/18/25 14/20/246
s 2
f 4/12/247 64/8/10 71/7/9 9/13/248
s off
f 68/80/249 69/25/250 73/33/251 72/102/252
f 69/25/253 18/26/254 74/34/255 73/33/256
f 67/49/257 68/103/258 72/32/259 76/41/260
f 27/50/261 67/49/262 76/41/263 77/42/264
f 60/31/265 59/40/266 79/78/267 78/99/268
f 59/40/269 27/50/270 77/42/271 79/78/272
f 18/26/273 61/24/274 80/79/275 74/34/276
f 61/24/277 60/101/278 78/77/279 80/79/280
f 81/81/281 82/82/282 88/83/283 87/84/284
f 82/82/285 83/85/286 89/86/287 88/83/288
f 83/108/289 84/87/290 90/88/291 89/86/292
f 84/87/293 85/89/294 91/90/295 90/88/296
f 85/89/297 86/91/298 92/92/299 91/90/300
f 86/91/301 81/81/302 87/84/303 92/92/304
f 94/93/305 93/94/306 95/95/307 96/96/308 97/97/309 98/98/310
f 87/84/311 88/83/312 89/86/313 90/88/314 91/90/315 92/92/316
f 81/81/317 86/91/318 93/94/319 94/93/320
f 86/91/321 85/89/322 95/95/323 93/94/324
f 85/89/325 84/87/326 96/96/327 95/95/328
f 84/87/329 83/108/330 97/97/331 96/96/332
f 83/85/333 82/82/334 98/98/335 97/97/336
f 82/82/337 81/81/338 94/93/339 98/98/340
